<?xml version="1.0" encoding="UTF-8"?>
<svg xmlns="http://www.w3.org/2000/svg" viewBox="0 0 1024 1024" width="1024" height="1024">
 <metadata>Generated by contour_svg neural-first pipeline; no raster image is embedded.</metadata>
  <path class="line role-structure" data-source="primitive:window" d="M 696.03 469.99 L 769.05 469.99 L 769.05 560.01 L 696.03 560.01 L 696.03 469.99" fill="none" stroke="#FFFFFF" stroke-width="2.80" stroke-linecap="round" stroke-linejoin="round" vector-effect="non-scaling-stroke" />
  <path class="line role-structure" data-source="primitive:window" d="M 221.95 395.98 L 294.96 395.98 L 294.96 465.99 L 221.95 465.99 L 221.95 395.98" fill="none" stroke="#FFFFFF" stroke-width="2.80" stroke-linecap="round" stroke-linejoin="round" vector-effect="non-scaling-stroke" />
  <path class="line role-structure" data-source="primitive:window" d="M 134.93 683.03 L 204.94 683.03 L 204.94 739.04 L 134.93 739.04 L 134.93 683.03" fill="none" stroke="#FFFFFF" stroke-width="2.80" stroke-linecap="round" stroke-linejoin="round" vector-effect="non-scaling-stroke" />
  <path class="line role-structure" data-source="primitive:window" d="M 332.97 433.99 L 375.97 433.99 L 375.97 505.00 L 332.97 505.00 L 332.97 433.99" fill="none" stroke="#FFFFFF" stroke-width="2.80" stroke-linecap="round" stroke-linejoin="round" vector-effect="non-scaling-stroke" />
  <path class="line role-structure" data-source="primitive:window" d="M 444.99 322.96 L 496.00 322.96 L 496.00 376.97 L 444.99 376.97 L 444.99 322.96" fill="none" stroke="#FFFFFF" stroke-width="2.80" stroke-linecap="round" stroke-linejoin="round" vector-effect="non-scaling-stroke" />
  <path class="line role-structure" data-source="primitive:window" d="M 562.01 541.01 L 600.02 541.01 L 600.02 606.02 L 562.01 606.02 L 562.01 541.01" fill="none" stroke="#FFFFFF" stroke-width="2.80" stroke-linecap="round" stroke-linejoin="round" vector-effect="non-scaling-stroke" />
  <path class="line role-structure" data-source="primitive:window" d="M 848.06 530.00 L 892.07 530.00 L 892.07 576.01 L 848.06 576.01 L 848.06 530.00" fill="none" stroke="#FFFFFF" stroke-width="2.80" stroke-linecap="round" stroke-linejoin="round" vector-effect="non-scaling-stroke" />
  <path class="line role-structure" data-source="primitive:door" d="M 736.04 766.05 L 772.05 766.05 L 772.05 802.05 L 736.04 802.05 L 736.04 766.05" fill="none" stroke="#FFFFFF" stroke-width="2.80" stroke-linecap="round" stroke-linejoin="round" vector-effect="non-scaling-stroke" />
  <path class="line role-structure" data-source="primitive:door" d="M 865.07 735.04 L 892.07 735.04 L 892.07 776.05 L 865.07 776.05 L 865.07 735.04" fill="none" stroke="#FFFFFF" stroke-width="2.80" stroke-linecap="round" stroke-linejoin="round" vector-effect="non-scaling-stroke" />
  <path class="line role-structure" data-source="primitive:window" d="M 354.97 592.01 L 372.97 592.01 L 372.97 616.02 L 354.97 616.02 L 354.97 592.01" fill="none" stroke="#FFFFFF" stroke-width="2.80" stroke-linecap="round" stroke-linejoin="round" vector-effect="non-scaling-stroke" />
  <path class="line role-structure" data-source="primitive:balcony" d="M 682.03 582.01 L 942.08 582.01 L 942.08 667.03 L 682.03 667.03" fill="none" stroke="#FFFFFF" stroke-width="2.80" stroke-linecap="round" stroke-linejoin="round" vector-effect="non-scaling-stroke" />
  <path class="line role-structure" data-source="primitive:balcony" d="M 81.92 496.00 L 100.92 496.00 L 100.92 504.00 L 81.92 504.00" fill="none" stroke="#FFFFFF" stroke-width="2.80" stroke-linecap="round" stroke-linejoin="round" vector-effect="non-scaling-stroke" />
  <path class="line role-arc" data-source="primitive:arched_window" d="M 332.97 505.00 L 332.97 458.72 L 334.60 449.25 L 339.27 441.23 L 346.24 435.87 L 354.47 433.99 L 362.70 435.87 L 369.68 441.23 L 374.34 449.25 L 375.97 505.00 L 332.97 505.00" fill="none" stroke="#FFFFFF" stroke-width="2.80" stroke-linecap="round" stroke-linejoin="round" vector-effect="non-scaling-stroke" />
  <path class="line role-arc" data-source="primitive:arched_window" d="M 628.02 622.02 L 628.02 570.99 L 629.28 563.72 L 632.86 557.57 L 638.21 553.45 L 644.52 552.01 L 650.84 553.45 L 656.19 557.57 L 659.77 563.72 L 661.03 622.02 L 628.02 622.02" fill="none" stroke="#FFFFFF" stroke-width="2.80" stroke-linecap="round" stroke-linejoin="round" vector-effect="non-scaling-stroke" />
  <path class="line role-arc" data-source="primitive:arched_window" d="M 562.01 606.02 L 562.01 562.86 L 563.46 554.50 L 567.58 547.41 L 573.74 542.67 L 581.01 541.01 L 588.29 542.67 L 594.45 547.41 L 598.57 554.50 L 600.02 606.02 L 562.01 606.02" fill="none" stroke="#FFFFFF" stroke-width="2.80" stroke-linecap="round" stroke-linejoin="round" vector-effect="non-scaling-stroke" />
  <path class="line role-arc" data-source="primitive:arched_window" d="M 559.01 458.99 L 559.01 413.38 L 560.23 406.34 L 563.70 400.37 L 568.89 396.38 L 575.01 394.98 L 581.14 396.38 L 586.33 400.37 L 589.80 406.34 L 591.01 458.99 L 559.01 458.99" fill="none" stroke="#FFFFFF" stroke-width="2.80" stroke-linecap="round" stroke-linejoin="round" vector-effect="non-scaling-stroke" />
  <path class="line role-arc" data-source="primitive:arched_window" d="M 620.02 478.99 L 620.02 435.81 L 621.20 428.99 L 624.56 423.20 L 629.59 419.34 L 635.52 417.98 L 641.46 419.34 L 646.49 423.20 L 649.85 428.99 L 651.03 478.99 L 620.02 478.99" fill="none" stroke="#FFFFFF" stroke-width="2.80" stroke-linecap="round" stroke-linejoin="round" vector-effect="non-scaling-stroke" />
  <path class="line role-arc" data-source="primitive:arched_window" d="M 846.06 547.01 L 846.06 529.78 L 846.71 526.04 L 848.55 522.87 L 851.31 520.75 L 854.56 520.00 L 857.82 520.75 L 860.58 522.87 L 862.42 526.04 L 863.07 547.01 L 846.06 547.01" fill="none" stroke="#FFFFFF" stroke-width="2.80" stroke-linecap="round" stroke-linejoin="round" vector-effect="non-scaling-stroke" />
  <path class="line role-accent" data-source="primitive:balcony" d="M 682.03 611.77 L 942.08 611.77" fill="none" stroke="#FFFFFF" stroke-width="2.80" stroke-linecap="round" stroke-linejoin="round" vector-effect="non-scaling-stroke" />
  <path class="line role-accent" data-source="primitive:balcony" d="M 81.92 498.80 L 100.92 498.80" fill="none" stroke="#FFFFFF" stroke-width="2.80" stroke-linecap="round" stroke-linejoin="round" vector-effect="non-scaling-stroke" />
  <path class="line role-silhouette" data-source="primitive:outer_silhouette" d="M 229.95 341.97 L 200.94 393.98 L 220.95 433.99 L 193.94 435.99 L 208.94 473.99 L 306.96 450.99 L 375.97 515.00 L 383.98 573.01 L 354.97 603.02 L 354.97 728.04 L 375.97 747.04 L 543.01 748.04 L 549.01 832.06 L 926.08 802.05 L 941.08 658.03 L 904.07 620.02 L 894.07 478.99 L 914.07 462.99 L 880.07 409.98 L 815.06 369.97 L 761.05 388.98 L 701.04 356.97 L 653.03 264.95 L 531.00 241.95 L 566.01 216.95 L 534.00 191.94 L 229.95 341.97" fill="none" stroke="#FFFFFF" stroke-width="3.22" stroke-linecap="round" stroke-linejoin="round" vector-effect="non-scaling-stroke" />
  <path class="line role-roofline" data-source="primitive:roof_edge" d="M 684.57 350.12 L 533.01 303.21" fill="none" stroke="#FFFFFF" stroke-width="3.22" stroke-linecap="round" stroke-linejoin="round" vector-effect="non-scaling-stroke" />
  <path class="line role-roofline" data-source="primitive:roof_edge" d="M 686.03 418.98 L 817.06 371.97" fill="none" stroke="#FFFFFF" stroke-width="3.22" stroke-linecap="round" stroke-linejoin="round" vector-effect="non-scaling-stroke" />
  <path class="line role-roofline" data-source="primitive:roof_edge" d="M 586.33 453.20 L 507.21 399.78" fill="none" stroke="#FFFFFF" stroke-width="3.22" stroke-linecap="round" stroke-linejoin="round" vector-effect="non-scaling-stroke" />
  <path class="line role-roofline" data-source="primitive:roof_edge" d="M 210.94 406.98 L 533.00 269.95" fill="none" stroke="#FFFFFF" stroke-width="3.22" stroke-linecap="round" stroke-linejoin="round" vector-effect="non-scaling-stroke" />
  <path class="line role-roofline" data-source="primitive:roof_edge" d="M 304.96 391.98 L 631.02 252.95" fill="none" stroke="#FFFFFF" stroke-width="3.22" stroke-linecap="round" stroke-linejoin="round" vector-effect="non-scaling-stroke" />
  <path class="line role-roofline" data-source="primitive:roof_edge" d="M 652.03 364.95 L 533.01 303.21" fill="none" stroke="#FFFFFF" stroke-width="3.22" stroke-linecap="round" stroke-linejoin="round" vector-effect="non-scaling-stroke" />
  <path class="line role-roofline" data-source="primitive:roof_edge" d="M 684.57 350.12 L 559.86 317.02" fill="none" stroke="#FFFFFF" stroke-width="3.22" stroke-linecap="round" stroke-linejoin="round" vector-effect="non-scaling-stroke" />
  <path class="line role-roofline" data-source="primitive:roof_edge" d="M 650.28 357.35 L 535.98 299.64" fill="none" stroke="#FFFFFF" stroke-width="3.22" stroke-linecap="round" stroke-linejoin="round" vector-effect="non-scaling-stroke" />
  <path class="line role-roofline" data-source="primitive:roof_edge" d="M 800.09 463.14 L 899.07 535.73" fill="none" stroke="#FFFFFF" stroke-width="3.22" stroke-linecap="round" stroke-linejoin="round" vector-effect="non-scaling-stroke" />
  <path class="line role-roofline" data-source="primitive:roof_edge" d="M 421.01 292.81 L 535.34 258.21" fill="none" stroke="#FFFFFF" stroke-width="3.22" stroke-linecap="round" stroke-linejoin="round" vector-effect="non-scaling-stroke" />
  <path class="line role-roofline" data-source="primitive:roof_edge" d="M 587.22 398.57 L 470.06 375.35" fill="none" stroke="#FFFFFF" stroke-width="3.22" stroke-linecap="round" stroke-linejoin="round" vector-effect="non-scaling-stroke" />
  <path class="line role-roofline" data-source="primitive:roof_edge" d="M 206.94 391.98 L 530.00 254.95" fill="none" stroke="#FFFFFF" stroke-width="3.22" stroke-linecap="round" stroke-linejoin="round" vector-effect="non-scaling-stroke" />
  <path class="line role-roofline" data-source="primitive:roof_edge" d="M 308.96 302.96 L 469.99 220.95" fill="none" stroke="#FFFFFF" stroke-width="3.22" stroke-linecap="round" stroke-linejoin="round" vector-effect="non-scaling-stroke" />
  <path class="line role-roofline" data-source="primitive:roof_edge" d="M 508.00 236.95 L 661.03 324.97" fill="none" stroke="#FFFFFF" stroke-width="3.22" stroke-linecap="round" stroke-linejoin="round" vector-effect="non-scaling-stroke" />
  <path class="line role-roofline" data-source="primitive:roof_edge" d="M 532.23 277.58 L 222.59 409.39" fill="none" stroke="#FFFFFF" stroke-width="3.22" stroke-linecap="round" stroke-linejoin="round" vector-effect="non-scaling-stroke" />
  <path class="line role-structure" data-source="primitive:facade_edge" d="M 757.05 451.99 L 767.05 594.02" fill="none" stroke="#FFFFFF" stroke-width="2.80" stroke-linecap="round" stroke-linejoin="round" vector-effect="non-scaling-stroke" />
  <path class="line role-structure" data-source="primitive:facade_edge" d="M 783.65 588.92 L 800.09 463.14" fill="none" stroke="#FFFFFF" stroke-width="2.80" stroke-linecap="round" stroke-linejoin="round" vector-effect="non-scaling-stroke" />
  <path class="line role-structure" data-source="primitive:facade_edge" d="M 532.00 296.96 L 544.01 652.03" fill="none" stroke="#FFFFFF" stroke-width="2.80" stroke-linecap="round" stroke-linejoin="round" vector-effect="non-scaling-stroke" />
  <path class="line role-structure" data-source="primitive:facade_edge" d="M 624.02 252.95 L 633.02 356.97" fill="none" stroke="#FFFFFF" stroke-width="2.80" stroke-linecap="round" stroke-linejoin="round" vector-effect="non-scaling-stroke" />
  <path class="line role-structure" data-source="primitive:facade_edge" d="M 788.44 619.05 L 800.09 463.14" fill="none" stroke="#FFFFFF" stroke-width="2.80" stroke-linecap="round" stroke-linejoin="round" vector-effect="non-scaling-stroke" />
  <path class="line role-structure" data-source="primitive:facade_edge" d="M 701.04 522.00 L 712.04 389.98" fill="none" stroke="#FFFFFF" stroke-width="2.80" stroke-linecap="round" stroke-linejoin="round" vector-effect="non-scaling-stroke" />
  <path class="line role-structure" data-source="primitive:facade_edge" d="M 888.07 685.03 L 898.07 804.05" fill="none" stroke="#FFFFFF" stroke-width="2.80" stroke-linecap="round" stroke-linejoin="round" vector-effect="non-scaling-stroke" />
  <path class="line role-structure" data-source="primitive:facade_edge" d="M 796.05 373.97 L 818.06 623.02" fill="none" stroke="#FFFFFF" stroke-width="2.80" stroke-linecap="round" stroke-linejoin="round" vector-effect="non-scaling-stroke" />
  <path class="line role-structure" data-source="primitive:facade_edge" d="M 565.32 633.63 L 557.71 316.07" fill="none" stroke="#FFFFFF" stroke-width="2.80" stroke-linecap="round" stroke-linejoin="round" vector-effect="non-scaling-stroke" />
  <path class="line role-structure" data-source="primitive:facade_edge" d="M 427.98 612.02 L 432.99 333.97" fill="none" stroke="#FFFFFF" stroke-width="2.80" stroke-linecap="round" stroke-linejoin="round" vector-effect="non-scaling-stroke" />
  <path class="line role-structure" data-source="primitive:facade_edge" d="M 504.00 305.96 L 510.00 609.02" fill="none" stroke="#FFFFFF" stroke-width="2.80" stroke-linecap="round" stroke-linejoin="round" vector-effect="non-scaling-stroke" />
  <path class="line role-structure" data-source="primitive:facade_edge" d="M 674.03 432.99 L 684.03 633.02" fill="none" stroke="#FFFFFF" stroke-width="2.80" stroke-linecap="round" stroke-linejoin="round" vector-effect="non-scaling-stroke" />
  <path class="line role-structure" data-source="primitive:facade_edge" d="M 825.06 418.98 L 845.06 652.03" fill="none" stroke="#FFFFFF" stroke-width="2.80" stroke-linecap="round" stroke-linejoin="round" vector-effect="non-scaling-stroke" />
  <path class="line role-structure" data-source="primitive:facade_edge" d="M 386.98 670.03 L 397.98 348.97" fill="none" stroke="#FFFFFF" stroke-width="2.80" stroke-linecap="round" stroke-linejoin="round" vector-effect="non-scaling-stroke" />
  <path class="line role-structure" data-source="primitive:facade_edge" d="M 713.04 362.97 L 731.04 627.02" fill="none" stroke="#FFFFFF" stroke-width="2.80" stroke-linecap="round" stroke-linejoin="round" vector-effect="non-scaling-stroke" />
  <path class="line role-structure" data-source="primitive:facade_edge" d="M 650.73 369.90 L 662.08 656.15" fill="none" stroke="#FFFFFF" stroke-width="2.80" stroke-linecap="round" stroke-linejoin="round" vector-effect="non-scaling-stroke" />
  <path class="line role-structure" data-source="primitive:facade_edge" d="M 666.03 314.96 L 676.03 490.00" fill="none" stroke="#FFFFFF" stroke-width="2.80" stroke-linecap="round" stroke-linejoin="round" vector-effect="non-scaling-stroke" />
  <path class="line role-structure" data-source="primitive:facade_edge" d="M 561.01 543.01 L 561.01 411.98" fill="none" stroke="#FFFFFF" stroke-width="2.80" stroke-linecap="round" stroke-linejoin="round" vector-effect="non-scaling-stroke" />
  <path class="line role-structure" data-source="primitive:facade_edge" d="M 566.86 534.76 L 585.35 419.06" fill="none" stroke="#FFFFFF" stroke-width="2.80" stroke-linecap="round" stroke-linejoin="round" vector-effect="non-scaling-stroke" />
  <path class="line role-structure" data-source="primitive:facade_edge" d="M 732.04 460.99 L 742.04 603.02" fill="none" stroke="#FFFFFF" stroke-width="2.80" stroke-linecap="round" stroke-linejoin="round" vector-effect="non-scaling-stroke" />
  <path class="line role-structure" data-source="primitive:facade_edge" d="M 788.44 619.05 L 766.45 481.92" fill="none" stroke="#FFFFFF" stroke-width="2.80" stroke-linecap="round" stroke-linejoin="round" vector-effect="non-scaling-stroke" />
  <path class="line role-structure" data-source="primitive:facade_edge" d="M 710.04 777.05 L 710.04 671.03" fill="none" stroke="#FFFFFF" stroke-width="2.80" stroke-linecap="round" stroke-linejoin="round" vector-effect="non-scaling-stroke" />
  <path class="line role-structure" data-source="primitive:facade_edge" d="M 441.18 554.89 L 439.69 648.67" fill="none" stroke="#FFFFFF" stroke-width="2.80" stroke-linecap="round" stroke-linejoin="round" vector-effect="non-scaling-stroke" />
  <path class="line role-structure" data-source="primitive:facade_edge" d="M 645.02 302.96 L 652.03 423.98" fill="none" stroke="#FFFFFF" stroke-width="2.80" stroke-linecap="round" stroke-linejoin="round" vector-effect="non-scaling-stroke" />
  <path class="line role-structure" data-source="primitive:facade_edge" d="M 891.07 696.03 L 903.07 801.05" fill="none" stroke="#FFFFFF" stroke-width="2.80" stroke-linecap="round" stroke-linejoin="round" vector-effect="non-scaling-stroke" />
  <path class="line role-structure" data-source="primitive:facade_edge" d="M 843.06 674.03 L 850.06 799.05" fill="none" stroke="#FFFFFF" stroke-width="2.80" stroke-linecap="round" stroke-linejoin="round" vector-effect="non-scaling-stroke" />
  <path class="line role-structure" data-source="primitive:facade_edge" d="M 717.04 455.99 L 731.04 609.02" fill="none" stroke="#FFFFFF" stroke-width="2.80" stroke-linecap="round" stroke-linejoin="round" vector-effect="non-scaling-stroke" />
  <path class="line role-structure" data-source="primitive:facade_edge" d="M 613.02 241.95 L 618.02 348.97" fill="none" stroke="#FFFFFF" stroke-width="2.80" stroke-linecap="round" stroke-linejoin="round" vector-effect="non-scaling-stroke" />
  <path class="line role-structure" data-source="primitive:facade_edge" d="M 511.00 652.03 L 511.00 544.01" fill="none" stroke="#FFFFFF" stroke-width="2.80" stroke-linecap="round" stroke-linejoin="round" vector-effect="non-scaling-stroke" />
  <path class="line role-structure" data-source="primitive:facade_edge" d="M 585.01 393.98 L 591.01 473.99" fill="none" stroke="#FFFFFF" stroke-width="2.80" stroke-linecap="round" stroke-linejoin="round" vector-effect="non-scaling-stroke" />
  <path class="line role-structure" data-source="primitive:facade_edge" d="M 396.49 359.35 L 391.64 436.04" fill="none" stroke="#FFFFFF" stroke-width="2.80" stroke-linecap="round" stroke-linejoin="round" vector-effect="non-scaling-stroke" />
  <path class="line role-structure" data-source="primitive:facade_edge" d="M 776.05 714.04 L 780.05 801.05" fill="none" stroke="#FFFFFF" stroke-width="2.80" stroke-linecap="round" stroke-linejoin="round" vector-effect="non-scaling-stroke" />
  <path class="line role-structure" data-source="primitive:facade_edge" d="M 722.04 689.03 L 728.04 804.05" fill="none" stroke="#FFFFFF" stroke-width="2.80" stroke-linecap="round" stroke-linejoin="round" vector-effect="non-scaling-stroke" />
  <path class="line role-structure" data-source="primitive:facade_edge" d="M 378.98 523.00 L 378.98 420.98" fill="none" stroke="#FFFFFF" stroke-width="2.80" stroke-linecap="round" stroke-linejoin="round" vector-effect="non-scaling-stroke" />
  <path class="line role-structure" data-source="primitive:facade_edge" d="M 896.24 623.57 L 899.07 535.73" fill="none" stroke="#FFFFFF" stroke-width="2.80" stroke-linecap="round" stroke-linejoin="round" vector-effect="non-scaling-stroke" />
  <path class="line role-structure" data-source="primitive:facade_edge" d="M 427.79 490.16 L 433.48 559.76" fill="none" stroke="#FFFFFF" stroke-width="2.80" stroke-linecap="round" stroke-linejoin="round" vector-effect="non-scaling-stroke" />
  <path class="line role-structure" data-source="primitive:facade_edge" d="M 311.96 458.99 L 315.96 383.98" fill="none" stroke="#FFFFFF" stroke-width="2.80" stroke-linecap="round" stroke-linejoin="round" vector-effect="non-scaling-stroke" />
  <path class="line role-structure" data-source="primitive:facade_edge" d="M 791.22 466.07 L 785.89 587.22" fill="none" stroke="#FFFFFF" stroke-width="2.80" stroke-linecap="round" stroke-linejoin="round" vector-effect="non-scaling-stroke" />
  <path class="line role-structure" data-source="primitive:facade_edge" d="M 389.19 733.68 L 396.75 667.49" fill="none" stroke="#FFFFFF" stroke-width="2.80" stroke-linecap="round" stroke-linejoin="round" vector-effect="non-scaling-stroke" />
  <path class="line role-structure" data-source="primitive:facade_edge" d="M 688.48 673.71 L 682.51 602.33" fill="none" stroke="#FFFFFF" stroke-width="2.80" stroke-linecap="round" stroke-linejoin="round" vector-effect="non-scaling-stroke" />
  <path class="line role-structure" data-source="primitive:facade_edge" d="M 639.02 700.03 L 644.02 780.05" fill="none" stroke="#FFFFFF" stroke-width="2.80" stroke-linecap="round" stroke-linejoin="round" vector-effect="non-scaling-stroke" />
  <path class="line role-structure" data-source="primitive:facade_edge" d="M 389.19 733.68 L 395.53 655.96" fill="none" stroke="#FFFFFF" stroke-width="2.80" stroke-linecap="round" stroke-linejoin="round" vector-effect="non-scaling-stroke" />
  <path class="line role-structure" data-source="primitive:facade_edge" d="M 854.06 585.01 L 856.06 522.00" fill="none" stroke="#FFFFFF" stroke-width="2.80" stroke-linecap="round" stroke-linejoin="round" vector-effect="non-scaling-stroke" />
  <path class="line role-structure" data-source="primitive:facade_edge" d="M 809.06 667.03 L 816.06 802.05" fill="none" stroke="#FFFFFF" stroke-width="2.80" stroke-linecap="round" stroke-linejoin="round" vector-effect="non-scaling-stroke" />
  <path class="line role-structure" data-source="primitive:facade_edge" d="M 491.00 611.02 L 491.00 536.00" fill="none" stroke="#FFFFFF" stroke-width="2.80" stroke-linecap="round" stroke-linejoin="round" vector-effect="non-scaling-stroke" />
  <path class="line role-structure" data-source="primitive:facade_edge" d="M 894.87 590.53 L 899.07 535.73" fill="none" stroke="#FFFFFF" stroke-width="2.80" stroke-linecap="round" stroke-linejoin="round" vector-effect="non-scaling-stroke" />
  <path class="line role-structure" data-source="primitive:facade_edge" d="M 799.05 716.04 L 810.06 803.05" fill="none" stroke="#FFFFFF" stroke-width="2.80" stroke-linecap="round" stroke-linejoin="round" vector-effect="non-scaling-stroke" />
  <path class="line role-structure" data-source="primitive:facade_edge" d="M 507.76 493.58 L 504.17 546.64" fill="none" stroke="#FFFFFF" stroke-width="2.80" stroke-linecap="round" stroke-linejoin="round" vector-effect="non-scaling-stroke" />
  <path class="line role-structure" data-source="primitive:facade_edge" d="M 720.11 804.08 L 721.65 728.33" fill="none" stroke="#FFFFFF" stroke-width="2.80" stroke-linecap="round" stroke-linejoin="round" vector-effect="non-scaling-stroke" />
  <path class="line role-structure" data-source="primitive:facade_edge" d="M 581.01 550.01 L 587.01 618.02" fill="none" stroke="#FFFFFF" stroke-width="2.80" stroke-linecap="round" stroke-linejoin="round" vector-effect="non-scaling-stroke" />
  <path class="line role-structure" data-source="primitive:facade_edge" d="M 893.07 587.01 L 898.07 642.02" fill="none" stroke="#FFFFFF" stroke-width="2.80" stroke-linecap="round" stroke-linejoin="round" vector-effect="non-scaling-stroke" />
  <path class="line role-structure" data-source="primitive:facade_edge" d="M 634.02 552.01 L 636.02 624.02" fill="none" stroke="#FFFFFF" stroke-width="2.80" stroke-linecap="round" stroke-linejoin="round" vector-effect="non-scaling-stroke" />
  <path class="line role-structure" data-source="primitive:facade_edge" d="M 658.00 562.80 L 649.59 612.41" fill="none" stroke="#FFFFFF" stroke-width="2.80" stroke-linecap="round" stroke-linejoin="round" vector-effect="non-scaling-stroke" />
  <path class="line role-structure" data-source="primitive:facade_edge" d="M 453.99 326.97 L 456.99 376.97" fill="none" stroke="#FFFFFF" stroke-width="2.80" stroke-linecap="round" stroke-linejoin="round" vector-effect="non-scaling-stroke" />
  <path class="line role-structure" data-source="primitive:facade_edge" d="M 232.95 472.99 L 236.95 415.98" fill="none" stroke="#FFFFFF" stroke-width="2.80" stroke-linecap="round" stroke-linejoin="round" vector-effect="non-scaling-stroke" />
  <path class="line role-structure" data-source="primitive:facade_edge" d="M 427.71 513.39 L 433.48 559.76" fill="none" stroke="#FFFFFF" stroke-width="2.80" stroke-linecap="round" stroke-linejoin="round" vector-effect="non-scaling-stroke" />
  <path class="line role-structure" data-source="primitive:facade_edge" d="M 282.96 450.99 L 284.96 400.98" fill="none" stroke="#FFFFFF" stroke-width="2.80" stroke-linecap="round" stroke-linejoin="round" vector-effect="non-scaling-stroke" />
  <path class="line role-structure" data-source="primitive:facade_edge" d="M 668.53 630.01 L 658.00 562.80" fill="none" stroke="#FFFFFF" stroke-width="2.80" stroke-linecap="round" stroke-linejoin="round" vector-effect="non-scaling-stroke" />
  <path class="line role-structure" data-source="primitive:facade_edge" d="M 823.06 374.97 L 830.06 418.98" fill="none" stroke="#FFFFFF" stroke-width="2.80" stroke-linecap="round" stroke-linejoin="round" vector-effect="non-scaling-stroke" />
  <path class="line role-structure" data-source="primitive:facade_edge" d="M 423.67 246.75 L 425.38 304.09" fill="none" stroke="#FFFFFF" stroke-width="2.80" stroke-linecap="round" stroke-linejoin="round" vector-effect="non-scaling-stroke" />
  <path class="line role-structure" data-source="primitive:facade_edge" d="M 391.28 618.67 L 396.75 667.49" fill="none" stroke="#FFFFFF" stroke-width="2.80" stroke-linecap="round" stroke-linejoin="round" vector-effect="non-scaling-stroke" />
  <path class="line role-structure" data-source="primitive:facade_edge" d="M 632.73 774.56 L 637.45 733.17" fill="none" stroke="#FFFFFF" stroke-width="2.80" stroke-linecap="round" stroke-linejoin="round" vector-effect="non-scaling-stroke" />
  <path class="line role-structure" data-source="primitive:facade_edge" d="M 923.42 759.92 L 920.22 718.62" fill="none" stroke="#FFFFFF" stroke-width="2.80" stroke-linecap="round" stroke-linejoin="round" vector-effect="non-scaling-stroke" />
  <path class="line role-structure" data-source="primitive:facade_edge" d="M 639.46 432.37 L 641.67 472.39" fill="none" stroke="#FFFFFF" stroke-width="2.80" stroke-linecap="round" stroke-linejoin="round" vector-effect="non-scaling-stroke" />
  <path class="line role-structure" data-source="primitive:facade_edge" d="M 593.10 545.93 L 592.31 601.72" fill="none" stroke="#FFFFFF" stroke-width="2.80" stroke-linecap="round" stroke-linejoin="round" vector-effect="non-scaling-stroke" />
  <path class="line role-structure" data-source="primitive:facade_edge" d="M 921.08 790.05 L 922.08 752.04" fill="none" stroke="#FFFFFF" stroke-width="2.80" stroke-linecap="round" stroke-linejoin="round" vector-effect="non-scaling-stroke" />
  <path class="line role-structure" data-source="primitive:facade_edge" d="M 507.00 207.94 L 510.00 262.95" fill="none" stroke="#FFFFFF" stroke-width="2.80" stroke-linecap="round" stroke-linejoin="round" vector-effect="non-scaling-stroke" />
  <path class="line role-structure" data-source="primitive:facade_edge" d="M 506.58 369.59 L 503.73 316.62" fill="none" stroke="#FFFFFF" stroke-width="2.80" stroke-linecap="round" stroke-linejoin="round" vector-effect="non-scaling-stroke" />
  <path class="line role-structure" data-source="primitive:facade_edge" d="M 457.99 374.97 L 457.99 311.96" fill="none" stroke="#FFFFFF" stroke-width="2.80" stroke-linecap="round" stroke-linejoin="round" vector-effect="non-scaling-stroke" />
  <path class="line role-structure" data-source="primitive:facade_edge" d="M 248.95 458.99 L 253.95 407.98" fill="none" stroke="#FFFFFF" stroke-width="2.80" stroke-linecap="round" stroke-linejoin="round" vector-effect="non-scaling-stroke" />
  <path class="line role-structure" data-source="primitive:facade_edge" d="M 846.06 803.05 L 848.06 757.05" fill="none" stroke="#FFFFFF" stroke-width="2.80" stroke-linecap="round" stroke-linejoin="round" vector-effect="non-scaling-stroke" />
  <path class="line role-structure" data-source="primitive:facade_edge" d="M 433.99 282.96 L 436.99 247.95" fill="none" stroke="#FFFFFF" stroke-width="2.80" stroke-linecap="round" stroke-linejoin="round" vector-effect="non-scaling-stroke" />
  <path class="line role-structure" data-source="primitive:facade_edge" d="M 884.07 472.99 L 888.07 530.00" fill="none" stroke="#FFFFFF" stroke-width="2.80" stroke-linecap="round" stroke-linejoin="round" vector-effect="non-scaling-stroke" />
  <path class="line role-structure" data-source="primitive:facade_edge" d="M 573.01 536.00 L 576.01 502.00" fill="none" stroke="#FFFFFF" stroke-width="2.80" stroke-linecap="round" stroke-linejoin="round" vector-effect="non-scaling-stroke" />
  <path class="line role-structure" data-source="primitive:facade_edge" d="M 874.07 562.01 L 877.07 528.00" fill="none" stroke="#FFFFFF" stroke-width="2.80" stroke-linecap="round" stroke-linejoin="round" vector-effect="non-scaling-stroke" />
  <path class="line role-structure" data-source="primitive:facade_edge" d="M 634.20 700.85 L 637.45 733.17" fill="none" stroke="#FFFFFF" stroke-width="2.80" stroke-linecap="round" stroke-linejoin="round" vector-effect="non-scaling-stroke" />
  <path class="line role-structure" data-source="primitive:facade_edge" d="M 241.95 374.97 L 245.95 332.97" fill="none" stroke="#FFFFFF" stroke-width="2.80" stroke-linecap="round" stroke-linejoin="round" vector-effect="non-scaling-stroke" />
  <path class="line role-structure" data-source="primitive:facade_edge" d="M 793.16 659.96 L 791.75 622.36" fill="none" stroke="#FFFFFF" stroke-width="2.80" stroke-linecap="round" stroke-linejoin="round" vector-effect="non-scaling-stroke" />
  <path class="line role-arc" data-source="primitive:arch_or_ellipse" d="M 533.00 655.03 L 359.97 675.03 L 540.01 655.03 L 543.01 743.04 L 527.00 743.04 L 546.01 745.04 L 542.01 744.04 L 542.01 725.04 L 547.01 724.04 L 543.01 722.04 L 611.02 728.04 L 616.02 731.04 L 620.02 740.04 L 640.02 748.04 L 643.02 732.04 L 679.03 735.04 L 643.02 732.04 L 639.02 717.04 L 642.02 747.04 L 625.02 742.04 L 616.02 732.04 L 636.02 734.04 L 637.02 710.04 L 637.02 732.04 L 616.02 731.04 L 613.02 707.04 L 613.02 729.04 L 543.01 722.04 L 543.01 697.03 L 610.02 703.04 L 574.01 701.04 L 572.01 697.03 L 568.01 698.03 L 571.01 700.03 L 543.01 697.03 L 541.01 655.03 L 534.00 655.03" fill="none" stroke="#FFFFFF" stroke-width="2.80" stroke-linecap="round" stroke-linejoin="round" vector-effect="non-scaling-stroke" />
  <path class="line role-arc" data-source="primitive:arch_or_ellipse" d="M 732.04 689.03 L 749.04 693.03 L 767.05 691.03 L 774.05 694.03 L 781.05 803.05 L 776.05 720.04 L 803.05 718.04 L 808.06 803.05 L 802.05 716.04 L 777.05 719.04 L 772.05 692.03 L 750.04 693.03 L 733.04 690.03" fill="none" stroke="#FFFFFF" stroke-width="2.80" stroke-linecap="round" stroke-linejoin="round" vector-effect="non-scaling-stroke" />
  <path class="line role-arc" data-source="primitive:arch_or_ellipse" d="M 301.96 396.98 L 273.96 410.98 L 271.96 414.98 L 257.95 418.98 L 272.96 415.98 L 271.96 442.99 L 270.96 420.98 L 257.95 420.98 L 260.95 423.98 L 259.95 447.99 L 262.95 448.99 L 241.95 455.99 L 240.95 458.99 L 244.95 455.99 L 244.95 459.99 L 246.95 454.99 L 253.95 451.99 L 261.95 454.99 L 245.95 461.99 L 240.95 460.99 L 243.95 461.99 L 236.95 464.99 L 245.95 463.99 L 246.95 466.99 L 251.95 460.99 L 279.96 450.99 L 283.96 452.99 L 281.96 450.99 L 285.96 408.98 L 282.96 441.99 L 264.95 446.99 L 266.95 423.98 L 269.95 423.98 L 270.96 443.99 L 273.96 411.98 L 302.96 396.98 L 305.96 399.98 L 302.96 396.98" fill="none" stroke="#FFFFFF" stroke-width="2.80" stroke-linecap="round" stroke-linejoin="round" vector-effect="non-scaling-stroke" />
  <path class="line role-arc" data-source="primitive:arch_or_ellipse" d="M 390.98 366.97 L 396.98 366.97 L 395.98 425.98 L 380.98 430.98 L 376.97 414.98 L 369.97 406.98 L 361.97 403.98 L 352.97 404.98 L 335.97 422.98 L 327.97 447.99 L 338.97 418.98 L 355.97 403.98 L 365.97 404.98 L 374.97 412.98 L 379.98 430.98 L 373.97 433.99 L 365.97 416.98 L 352.97 414.98 L 339.97 427.98 L 333.97 446.99 L 313.96 453.99 L 315.96 394.98 L 389.98 366.97" fill="none" stroke="#FFFFFF" stroke-width="2.80" stroke-linecap="round" stroke-linejoin="round" vector-effect="non-scaling-stroke" />
  <path class="line role-arc" data-source="primitive:arch_or_ellipse" d="M 304.96 390.98 L 281.96 402.98 L 220.95 423.98 L 232.95 418.98 L 238.95 418.98 L 242.95 422.98 L 238.95 432.99 L 238.95 449.99 L 240.95 425.98 L 253.95 418.98 L 253.95 448.99 L 254.95 418.98 L 244.95 422.98 L 239.95 419.98 L 305.96 391.98" fill="none" stroke="#FFFFFF" stroke-width="2.80" stroke-linecap="round" stroke-linejoin="round" vector-effect="non-scaling-stroke" />
  <path class="line role-arc" data-source="primitive:arch_or_ellipse" d="M 630.02 558.01 L 631.02 607.02 L 636.02 608.02 L 636.02 567.01 L 639.02 574.01 L 640.02 610.02 L 648.03 612.02 L 647.03 572.01 L 653.03 570.01 L 651.03 604.02 L 654.03 566.01 L 631.02 558.01" fill="none" stroke="#FFFFFF" stroke-width="2.80" stroke-linecap="round" stroke-linejoin="round" vector-effect="non-scaling-stroke" />
  <path class="line role-arc" data-source="primitive:arch_or_ellipse" d="M 392.98 554.01 L 391.98 608.02 L 375.97 611.02 L 376.97 580.01 L 375.97 612.02 L 366.97 612.02 L 366.97 598.02 L 367.97 613.02 L 359.97 615.02 L 385.98 610.02 L 391.98 611.02 L 387.98 615.02 L 391.98 614.02 L 392.98 555.01" fill="none" stroke="#FFFFFF" stroke-width="2.80" stroke-linecap="round" stroke-linejoin="round" vector-effect="non-scaling-stroke" />
  <path class="line role-arc" data-source="primitive:arch_or_ellipse" d="M 508.00 470.99 L 506.00 486.00 L 433.99 505.00 L 453.99 499.00 L 459.99 501.00 L 456.99 499.00 L 467.99 495.00 L 474.99 497.00 L 470.99 495.00 L 481.99 495.00 L 480.99 492.00 L 486.00 494.00 L 483.99 491.00 L 491.00 493.00 L 487.00 491.00 L 495.00 488.00 L 503.00 491.00 L 482.99 497.00 L 477.99 495.00 L 479.99 497.00 L 475.99 499.00 L 468.99 497.00 L 472.99 499.00 L 466.99 501.00 L 506.00 491.00 L 508.00 471.99" fill="none" stroke="#FFFFFF" stroke-width="2.80" stroke-linecap="round" stroke-linejoin="round" vector-effect="non-scaling-stroke" />
  <path class="line role-arc" data-source="primitive:arch_or_ellipse" d="M 894.07 564.01 L 896.07 623.02 L 854.06 611.02 L 910.07 629.02 L 896.07 624.02 L 894.07 565.01" fill="none" stroke="#FFFFFF" stroke-width="2.80" stroke-linecap="round" stroke-linejoin="round" vector-effect="non-scaling-stroke" />
  <path class="line role-arc" data-source="primitive:arch_or_ellipse" d="M 483.99 610.02 L 466.99 613.02 L 470.99 615.02 L 441.99 617.02 L 446.99 618.02 L 441.99 619.02 L 440.99 649.03 L 442.99 619.02 L 496.00 611.02 L 484.99 610.02" fill="none" stroke="#FFFFFF" stroke-width="2.80" stroke-linecap="round" stroke-linejoin="round" vector-effect="non-scaling-stroke" />
  <path class="line role-arc" data-source="primitive:arch_or_ellipse" d="M 418.98 304.96 L 422.98 305.96 L 299.96 360.97 L 296.96 359.97 L 417.98 304.96" fill="none" stroke="#FFFFFF" stroke-width="2.80" stroke-linecap="round" stroke-linejoin="round" vector-effect="non-scaling-stroke" />
  <path class="line role-arc" data-source="primitive:arch_or_ellipse" d="M 480.99 329.97 L 457.99 339.97 L 457.99 374.97 L 457.99 340.97 L 480.99 329.97 L 484.99 332.97 L 484.99 364.97 L 478.99 366.97 L 477.99 339.97 L 474.99 338.97 L 473.99 368.97 L 465.99 371.97 L 466.99 351.97 L 465.99 372.97 L 451.99 379.98 L 451.99 382.98 L 453.99 378.98 L 477.99 369.97 L 483.99 370.97 L 481.99 369.97 L 488.00 366.97 L 480.99 367.97 L 484.99 365.97 L 484.99 332.97 L 481.99 329.97" fill="none" stroke="#FFFFFF" stroke-width="2.80" stroke-linecap="round" stroke-linejoin="round" vector-effect="non-scaling-stroke" />
  <path class="line role-arc" data-source="primitive:arch_or_ellipse" d="M 504.00 399.98 L 432.99 423.98 L 441.99 421.98 L 439.99 424.98 L 506.00 402.98 L 508.00 456.99 L 435.99 479.99 L 433.99 476.99 L 433.99 479.99 L 446.99 475.99 L 450.99 477.99 L 449.99 474.99 L 460.99 474.99 L 458.99 472.99 L 503.00 458.99 L 508.00 459.99 L 508.00 406.98 L 505.00 399.98" fill="none" stroke="#FFFFFF" stroke-width="2.80" stroke-linecap="round" stroke-linejoin="round" vector-effect="non-scaling-stroke" />
  <path class="line role-arc" data-source="primitive:arch_or_ellipse" d="M 710.04 729.04 L 711.04 781.05 L 694.03 779.05 L 700.03 778.05 L 660.03 779.05 L 659.03 775.05 L 658.03 778.05 L 586.01 774.05 L 599.02 773.05 L 585.01 772.05 L 586.01 751.04 L 637.02 754.05 L 640.02 756.05 L 640.02 771.05 L 641.02 755.05 L 657.03 756.05 L 659.03 765.05 L 659.03 759.05 L 665.03 758.05 L 659.03 756.05 L 698.03 759.05 L 670.03 757.05 L 669.03 749.04 L 668.03 757.05 L 598.02 752.04 L 594.02 750.04 L 596.02 749.04 L 583.01 751.04 L 542.01 748.04 L 585.01 752.04 L 583.01 775.05 L 545.01 773.05 L 632.02 778.05 L 619.02 779.05 L 616.02 785.05 L 620.02 779.05 L 633.02 777.05 L 684.03 780.05 L 682.03 782.05 L 685.03 784.05 L 693.03 782.05 L 686.03 780.05 L 711.04 781.05 L 712.04 801.05 L 701.04 801.05 L 713.04 800.05 L 710.04 730.04" fill="none" stroke="#FFFFFF" stroke-width="2.80" stroke-linecap="round" stroke-linejoin="round" vector-effect="non-scaling-stroke" />
  <path class="line role-arc" data-source="primitive:arch_or_ellipse" d="M 354.97 307.96 L 323.97 337.97 L 354.97 307.96 L 386.98 309.96 L 355.97 307.96" fill="none" stroke="#FFFFFF" stroke-width="2.80" stroke-linecap="round" stroke-linejoin="round" vector-effect="non-scaling-stroke" />
  <path class="line role-accent" data-source="primitive:selected_detail" d="M 899.07 535.73 L 629.96 612.40" fill="none" stroke="#FFFFFF" stroke-width="2.18" stroke-linecap="round" stroke-linejoin="round" vector-effect="non-scaling-stroke" />
  <path class="line role-accent" data-source="primitive:selected_detail" d="M 681.03 577.01 L 939.08 656.03" fill="none" stroke="#FFFFFF" stroke-width="2.18" stroke-linecap="round" stroke-linejoin="round" vector-effect="non-scaling-stroke" />
  <path class="line role-accent" data-source="primitive:selected_detail" d="M 681.03 589.01 L 939.08 663.03" fill="none" stroke="#FFFFFF" stroke-width="2.18" stroke-linecap="round" stroke-linejoin="round" vector-effect="non-scaling-stroke" />
  <path class="line role-accent" data-source="primitive:selected_detail" d="M 724.04 580.01 L 938.08 650.03" fill="none" stroke="#FFFFFF" stroke-width="2.18" stroke-linecap="round" stroke-linejoin="round" vector-effect="non-scaling-stroke" />
  <path class="line role-accent" data-source="primitive:selected_detail" d="M 788.44 619.05 L 828.70 453.24" fill="none" stroke="#FFFFFF" stroke-width="2.18" stroke-linecap="round" stroke-linejoin="round" vector-effect="non-scaling-stroke" />
  <path class="line role-accent" data-source="primitive:selected_detail" d="M 793.02 662.89 L 925.95 752.86" fill="none" stroke="#FFFFFF" stroke-width="2.18" stroke-linecap="round" stroke-linejoin="round" vector-effect="non-scaling-stroke" />
  <path class="line role-accent" data-source="primitive:selected_detail" d="M 792.05 637.02 L 937.08 676.03" fill="none" stroke="#FFFFFF" stroke-width="2.18" stroke-linecap="round" stroke-linejoin="round" vector-effect="non-scaling-stroke" />
  <path class="line role-accent" data-source="primitive:selected_detail" d="M 534.49 286.50 L 585.35 419.06" fill="none" stroke="#FFFFFF" stroke-width="2.18" stroke-linecap="round" stroke-linejoin="round" vector-effect="non-scaling-stroke" />
  <path class="line role-accent" data-source="primitive:selected_detail" d="M 681.03 574.01 L 930.08 636.02" fill="none" stroke="#FFFFFF" stroke-width="2.18" stroke-linecap="round" stroke-linejoin="round" vector-effect="non-scaling-stroke" />
  <path class="line role-accent" data-source="primitive:selected_detail" d="M 802.31 641.90 L 936.16 676.62" fill="none" stroke="#FFFFFF" stroke-width="2.18" stroke-linecap="round" stroke-linejoin="round" vector-effect="non-scaling-stroke" />
  <path class="line role-accent" data-source="primitive:selected_detail" d="M 765.05 584.01 L 927.08 637.02" fill="none" stroke="#FFFFFF" stroke-width="2.18" stroke-linecap="round" stroke-linejoin="round" vector-effect="non-scaling-stroke" />
  <path class="line role-accent" data-source="primitive:selected_detail" d="M 434.33 618.75 L 565.30 592.07" fill="none" stroke="#FFFFFF" stroke-width="2.18" stroke-linecap="round" stroke-linejoin="round" vector-effect="non-scaling-stroke" />
  <path class="line role-accent" data-source="primitive:selected_detail" d="M 254.95 385.98 L 366.97 273.96" fill="none" stroke="#FFFFFF" stroke-width="2.18" stroke-linecap="round" stroke-linejoin="round" vector-effect="non-scaling-stroke" />
  <path class="line role-accent" data-source="primitive:selected_detail" d="M 791.05 662.03 L 931.08 694.03" fill="none" stroke="#FFFFFF" stroke-width="2.18" stroke-linecap="round" stroke-linejoin="round" vector-effect="non-scaling-stroke" />
  <path class="line role-accent" data-source="primitive:selected_detail" d="M 214.35 400.84 L 340.67 292.55" fill="none" stroke="#FFFFFF" stroke-width="2.18" stroke-linecap="round" stroke-linejoin="round" vector-effect="non-scaling-stroke" />
  <path class="line role-accent" data-source="primitive:selected_detail" d="M 722.04 454.99 L 764.05 571.01" fill="none" stroke="#FFFFFF" stroke-width="2.18" stroke-linecap="round" stroke-linejoin="round" vector-effect="non-scaling-stroke" />
  <path class="line role-accent" data-source="primitive:selected_detail" d="M 262.95 354.97 L 392.98 495.00" fill="none" stroke="#FFFFFF" stroke-width="2.18" stroke-linecap="round" stroke-linejoin="round" vector-effect="non-scaling-stroke" />
  <path class="line role-accent" data-source="primitive:selected_detail" d="M 539.90 649.56 L 505.82 531.22" fill="none" stroke="#FFFFFF" stroke-width="2.18" stroke-linecap="round" stroke-linejoin="round" vector-effect="non-scaling-stroke" />
  <path class="line role-accent" data-source="primitive:selected_detail" d="M 737.04 523.00 L 788.05 413.98" fill="none" stroke="#FFFFFF" stroke-width="2.18" stroke-linecap="round" stroke-linejoin="round" vector-effect="non-scaling-stroke" />
  <path class="line role-accent" data-source="primitive:selected_detail" d="M 243.95 378.98 L 335.97 289.96" fill="none" stroke="#FFFFFF" stroke-width="2.18" stroke-linecap="round" stroke-linejoin="round" vector-effect="non-scaling-stroke" />
  <path class="line role-accent" data-source="primitive:selected_detail" d="M 504.17 546.64 L 598.28 617.33" fill="none" stroke="#FFFFFF" stroke-width="2.18" stroke-linecap="round" stroke-linejoin="round" vector-effect="non-scaling-stroke" />
</svg>
